<?xml version="1.0" encoding="UTF-8" standalone="no"?>
<!-- Created with Inkscape (http://www.inkscape.org/) -->

<svg
   xmlns:dc="http://purl.org/dc/elements/1.1/"
   xmlns:cc="http://creativecommons.org/ns#"
   xmlns:rdf="http://www.w3.org/1999/02/22-rdf-syntax-ns#"
   xmlns:svg="http://www.w3.org/2000/svg"
   xmlns="http://www.w3.org/2000/svg"
   xmlns:sodipodi="http://sodipodi.sourceforge.net/DTD/sodipodi-0.dtd"
   xmlns:inkscape="http://www.inkscape.org/namespaces/inkscape"
   width="256"
   height="256"
   id="svg2"
   version="1.1"
   inkscape:version="0.48.4 r9939"
   sodipodi:docname="New document 1">
  <defs
     id="defs4" />
  <sodipodi:namedview
     id="base"
     pagecolor="#ffffff"
     bordercolor="#666666"
     borderopacity="1.0"
     inkscape:pageopacity="0.0"
     inkscape:pageshadow="2"
     inkscape:zoom="1.4"
     inkscape:cx="138.07802"
     inkscape:cy="132.57628"
     inkscape:document-units="px"
     inkscape:current-layer="layer1"
     showgrid="false"
     showguides="true"
     inkscape:window-width="1366"
     inkscape:window-height="717"
     inkscape:window-x="0"
     inkscape:window-y="25"
     inkscape:window-maximized="1" />
  <metadata
     id="metadata7">
    <rdf:RDF>
      <cc:Work
         rdf:about="">
        <dc:format>image/svg+xml</dc:format>
        <dc:type
           rdf:resource="http://purl.org/dc/dcmitype/StillImage" />
        <dc:title></dc:title>
      </cc:Work>
    </rdf:RDF>
  </metadata>
  <g
     inkscape:label="Layer 1"
     inkscape:groupmode="layer"
     id="layer1"
     transform="translate(0,-796.36218)">
    <g
       id="g3183"
       transform="translate(-3.2142854,-7.4999998)">
      <path
         style="fill:#fafafa"
         d="m 27,941.6777 0,-92.25589 2.75,-1.16639 c 3.199636,-1.3571 14.922746,-4.00451 24.25,-5.47634 l 6.5,-1.02568 18.10074,0.34377 18.100741,0.34378 1.399259,1.13085 c 0.769593,0.62196 2.92256,1.45692 4.78437,1.85545 5.1766,1.10808 12.95098,5.28165 19.84342,10.65268 3.4257,2.66951 6.44064,4.85366 6.69987,4.85366 0.25924,0 2.4064,-1.30259 4.77147,-2.89464 5.62036,-3.78335 13.83159,-7.56303 21.30013,-9.80457 l 6,-1.80079 15.5,0 15.5,0 5.85834,2.2765 c 3.22209,1.25208 7.78912,3.60491 10.14896,5.22853 l 4.29062,2.95202 2.97277,3.77147 c 5.03574,6.38872 8.19007,14.63616 10.23907,26.77148 l 0.84423,5 0.073,47.75 0.073,47.75 -9.5,0 -9.5,0 -0.009,-40.25 -0.009,-40.25 -1.00834,-11.39244 -1.00835,-11.39245 -2.99819,-6.28214 -2.99819,-6.28214 -4.18191,-3.07542 -4.18102,-3.07541 -1.60299,0 c -0.88165,0 -2.14566,-0.54266 -2.80891,-1.20591 l -1.20592,-1.20592 -11.94343,0.0414 -11.94343,0.0414 -1.30066,1.0341 c -0.71536,0.56875 -2.99394,1.33925 -5.06351,1.71221 l -3.76285,0.67811 -4.73715,2.44833 c -2.60543,1.34658 -5.60348,3.11987 -6.66235,3.94064 l -1.92521,1.4923 1.14763,2.26164 c 2.7261,5.37235 5.1084,12.90379 6.60066,20.86749 l 1.60213,8.55001 0,7.67162 0,7.67163 -1.53388,9.25045 -1.53388,9.25044 -1.55824,4 c -0.85703,2.2 -2.67837,6.44708 -4.04744,9.43796 l -2.4892,5.43796 -4.38395,5.58007 -4.38395,5.58007 -4.78473,3.56321 c -6.91256,5.14782 -12.94992,8.35476 -19.78473,10.50933 l -6,1.8914 -15,0 -15,0 -6,-2.29344 C 52.838048,980.8292 48.738792,978.8868 46.75,977.151 l -1.75,-1.52739 0,29.15499 0,29.155 -9,0 -9,0 0,-92.2559 z m 69.449766,25.60564 5.949764,-1.50804 5.07984,-3.3718 c 6.74792,-4.47902 8.69314,-6.69724 12.97794,-14.79936 l 3.61175,-6.82945 1.97332,-12.87488 1.97332,-12.87487 -1.53871,-10.24452 c -1.99849,-13.30576 -2.25769,-14.24588 -5.8778,-21.31901 l -3.06029,-5.97935 -5.17335,-5.02424 -5.17334,-5.02423 -4.34611,-2.18632 C 100.45575,864.0448 96.025,862.26531 93,861.29287 l -5.5,-1.76809 -14,0.0711 -14,0.0712 -7.25,1.76846 -7.25,1.76846 0.0269,47.1148 0.0269,47.11479 3.751726,2.31114 c 2.063449,1.27113 5.763845,3.22375 8.223102,4.33916 l 4.471377,2.02801 9,1.86831 9,1.86831 5.5,-0.52858 c 3.025,-0.29071 8.177395,-1.20719 11.449766,-2.0366 z"
         id="path3199"
         inkscape:connector-curvature="0" />
      <path
         style="fill:#ededed"
         d="m 27,941.6777 0,-92.25589 2.75,-1.16639 c 3.225891,-1.36824 15.020287,-4.02539 24.25,-5.46327 l 6.5,-1.01262 17,0.36094 17,0.36095 5.5,1.80129 c 3.025,0.99072 7.975,2.94753 11,4.34848 l 5.5,2.54718 6.22853,4.86761 c 3.4257,2.67718 6.44064,4.86761 6.69987,4.86761 0.25924,0 2.4064,-1.30259 4.77147,-2.89464 5.62036,-3.78335 13.83159,-7.56303 21.30013,-9.80457 l 6,-1.80079 15.5,0 15.5,0 5.85834,2.2765 c 3.22209,1.25208 7.72209,3.56228 10,5.13378 l 4.14166,2.85728 3.13062,3.90903 c 5.18484,6.47402 8.30452,14.5364 10.37914,26.82341 l 0.84423,5 0.073,47.75 0.073,47.75 -9.5,0 -9.5,0 -0.009,-40.25 -0.009,-40.25 -1.00834,-11.39244 -1.00835,-11.39245 -2.99819,-6.28214 -2.99819,-6.28214 -4.18191,-3.07542 -4.18102,-3.07541 -1.60299,0 c -0.88165,0 -2.15909,-0.55609 -2.83875,-1.23575 l -1.23575,-1.23575 -11.21425,0.0885 -11.21425,0.0885 -5.5,1.73247 c -6.24526,1.96722 -14.56849,5.80554 -17.42521,8.03577 l -1.92521,1.503 1.14763,2.26164 c 2.7261,5.37234 5.1084,12.90379 6.60066,20.86749 l 1.60213,8.55001 0,7.67162 0,7.67163 -1.53388,9.25045 -1.53388,9.25044 -1.58077,4 c -0.86942,2.2 -2.71861,6.475 -4.1093,9.5 l -2.52853,5.5 -4.32209,5.51803 -4.32209,5.51803 -4.78473,3.56321 c -6.91256,5.14782 -12.94992,8.35476 -19.78473,10.50933 l -6,1.8914 -15,0 -15,0 -6,-2.29344 C 52.838048,980.8292 48.738792,978.8868 46.75,977.151 l -1.75,-1.52739 0,29.15499 0,29.155 -9,0 -9,0 0,-92.2559 z m 69.402685,25.61784 5.902685,-1.49584 5.09731,-3.29722 c 6.62557,-4.28578 8.68534,-6.63645 13.05463,-14.89834 l 3.61175,-6.82945 1.97332,-12.87488 1.97332,-12.87487 -1.53871,-10.24452 c -1.99849,-13.30576 -2.25769,-14.24588 -5.8778,-21.31901 l -3.06029,-5.97935 -5.17335,-5.02424 -5.17334,-5.02423 -4.34611,-2.18632 C 100.45575,864.0448 96.025,862.2556 93,861.27129 l -5.5,-1.78967 -14,0.0983 -14,0.0983 -7.25,1.76292 -7.25,1.76292 0.04233,47.1148 0.04233,47.11479 3.594903,2.29508 c 1.977197,1.26229 6.120651,3.33499 9.207674,4.60599 l 5.612771,2.31092 6,1.12467 c 3.3,0.61857 6.9,1.32486 8,1.56953 2.955808,0.65744 12.17658,-0.33975 18.902685,-2.04424 z"
         id="path3197"
         inkscape:connector-curvature="0" />
      <path
         style="fill:#d6d6d6"
         d="m 27,941.6777 0,-92.25589 2.75,-1.16639 c 3.225891,-1.36824 15.020287,-4.02539 24.25,-5.46327 l 6.5,-1.01262 17,0.36094 17,0.36095 5.5,1.80129 c 3.025,0.99072 7.975,2.94753 11,4.34848 l 5.5,2.54718 6.22853,4.86761 c 3.4257,2.67718 6.44064,4.86761 6.69987,4.86761 0.25924,0 2.4064,-1.30259 4.77147,-2.89464 5.62036,-3.78335 13.83159,-7.56303 21.30013,-9.80457 l 6,-1.80079 15.5,0 15.5,0 5.85834,2.2765 c 3.22209,1.25208 7.7569,3.58274 10.07735,5.17926 l 4.21901,2.90275 2.89517,3.79576 c 4.04883,5.30828 6.19975,9.74148 8.65849,17.84573 l 2.12373,7 0.39184,51.25 0.39185,51.25 -9.55789,0 -9.55789,0 -8.4e-4,-40.75 -8.3e-4,-40.75 -1.03708,-10.93648 -1.03708,-10.93648 -2.97718,-6.23811 -2.97717,-6.2381 -4.18191,-3.07542 -4.18192,-3.07541 -1.60299,0 c -0.88165,0 -2.15909,-0.55609 -2.83875,-1.23575 l -1.23575,-1.23575 -11.21425,0.0885 -11.21425,0.0885 -5.5,1.73247 c -6.24526,1.96722 -14.56849,5.80554 -17.42521,8.03577 l -1.92521,1.503 1.14959,2.26164 c 0.63228,1.2439 2.07213,4.79215 3.19967,7.88499 l 2.05009,5.62335 1.47417,8.37665 1.47417,8.37665 0.001,6.76077 0.001,6.76076 -1.51826,9.73924 -1.51826,9.73923 -1.59639,4 c -0.87801,2.2 -2.72556,6.475 -4.10566,9.5 l -2.50927,5.5 -3.59399,4.5 c -5.43531,6.80548 -9.99068,10.77188 -17.15817,14.93974 l -6.5,3.77973 -6,1.89026 -6,1.89027 -15.5,-0.0738 -15.5,-0.0738 -9,-3.75168 c -4.95,-2.06342 -9.7875,-4.46245 -10.75,-5.33118 L 45,975.62361 l 0,29.15499 0,29.155 -9,0 -9,0 0,-92.2559 z m 69.402685,25.61784 5.902685,-1.49584 5.09731,-3.29722 c 6.61593,-4.27955 8.68623,-6.63809 13.0196,-14.83231 l 3.57672,-6.76342 2.05581,-12.73658 2.05582,-12.73658 -1.14047,-8.5 c -1.59849,-11.91376 -2.58994,-15.57608 -6.22507,-22.99499 l -3.18243,-6.49498 -4.17594,-4.17594 c -5.44286,-5.44286 -10.76148,-8.73955 -18.558012,-11.50297 L 88.5,859.52155 l -14.5,0.0686 -14.5,0.0686 -7.25,1.77262 -7.25,1.77263 0.04233,47.1148 0.04233,47.11479 3.594903,2.29508 c 1.977197,1.26229 6.120651,3.33499 9.207674,4.60599 l 5.612771,2.31092 6,1.12467 c 3.3,0.61857 6.9,1.32486 8,1.56953 2.955808,0.65744 12.17658,-0.33975 18.902685,-2.04424 z"
         id="path3195"
         inkscape:connector-curvature="0" />
      <path
         style="fill:#b6b6b6"
         d="m 27,941.6777 0,-92.25589 2.75,-1.16639 c 3.468717,-1.47123 15.615823,-4.15151 24.75,-5.46112 l 7,-1.00362 16.5,0.37997 16.5,0.37998 5.5,1.77669 c 3.025,0.97718 7.975,2.92292 11,4.32387 l 5.5,2.54718 6.22853,4.86761 c 3.4257,2.67718 6.44064,4.86761 6.69987,4.86761 0.25924,0 2.4064,-1.30524 4.77147,-2.90053 5.24566,-3.53831 13.28814,-7.208 21.30013,-9.71903 l 6,-1.88044 15.5,0 15.5,0 5.85834,2.2765 c 3.22209,1.25208 7.7569,3.58274 10.07735,5.17926 l 4.21901,2.90275 2.89517,3.79576 c 4.04883,5.30828 6.19975,9.74148 8.65849,17.84573 l 2.12373,7 0.39184,51.25 0.39185,51.25 -9.55789,0 -9.55789,0 -8.4e-4,-40.75 -8.3e-4,-40.75 -1.03708,-10.93648 -1.03708,-10.93648 -2.95334,-6.18816 -2.95334,-6.18816 -3.32228,-2.53403 c -1.82726,-1.39372 -5.0937,-3.31827 -7.25875,-4.27678 l -3.93646,-1.74274 -11,0.004 -11,0.004 -5.5,1.73247 c -6.24526,1.96722 -14.56849,5.80554 -17.42521,8.03577 l -1.92521,1.503 1.14959,2.26164 c 0.63228,1.2439 2.07213,4.79215 3.19967,7.88499 l 2.05009,5.62335 1.47417,8.37665 1.47417,8.37665 -0.0161,7 -0.0161,7 -1.46039,8.91082 -1.46039,8.91081 -1.96166,5.58919 c -1.07891,3.07405 -3.08214,7.83918 -4.45161,10.58918 l -2.48994,5 -4.32055,5.13838 c -7.36522,8.75939 -16.17408,14.80205 -27.32054,18.74122 l -6,2.1204 -15,0 -15,0 -6,-2.15393 c -9.16967,-3.2918 -13.827014,-5.39149 -15.75,-7.10064 L 45,975.62361 l 0,29.15499 0,29.155 -9,0 -9,0 0,-92.2559 z m 69.402685,25.65118 5.902685,-1.52918 5.09731,-3.29722 c 6.61841,-4.28115 8.686,-6.63767 13.02856,-14.84919 l 3.58567,-6.78031 2.06835,-12.71969 2.06835,-12.7197 -1.63668,-11.5 -1.63667,-11.5 -3.58608,-7.42226 -3.58608,-7.42227 -4.24866,-4.24866 c -5.51416,-5.51416 -10.80665,-8.8025 -18.630732,-11.57569 L 88.5,859.52155 l -14.695548,0.0608 -14.695549,0.0608 -4.304451,1.08878 C 52.437003,861.33079 49.2625,862.0797 47.75,862.39622 l -2.75,0.57547 0.04233,47.23095 0.04233,47.23095 3.594903,2.29508 c 1.977197,1.26229 6.120651,3.33499 9.207674,4.60599 l 5.612771,2.31092 6,1.12467 c 3.3,0.61857 6.9,1.33045 8,1.58196 3.009439,0.68808 12.257619,-0.30184 18.902685,-2.02333 z"
         id="path3193"
         inkscape:connector-curvature="0" />
      <path
         style="fill:#8e8e8e"
         d="m 27,941.57048 0,-92.36311 5.25,-1.54418 c 2.8875,-0.8493 8.625,-2.36759 12.75,-3.37399 l 7.5,-1.8298 20.5,-0.0129 20.5,-0.0129 6,1.8223 c 3.3,1.00226 8.475,2.97434 11.5,4.38239 l 5.5,2.56009 6.22853,4.86761 c 3.4257,2.67718 6.44064,4.86761 6.69987,4.86761 0.25924,0 2.4064,-1.30524 4.77147,-2.90053 5.24566,-3.53831 13.28814,-7.208 21.30013,-9.71903 l 6,-1.88044 15.5,0 15.5,0 5.85834,2.2765 c 3.22209,1.25208 7.7569,3.58274 10.07735,5.17926 l 4.21901,2.90275 2.92265,3.81287 c 3.61848,4.72065 6.08649,9.90725 8.72154,18.32862 l 2.03386,6.5 0.39165,51.28829 0.39165,51.2883 -9.30803,-0.2883 -9.30802,-0.28829 -0.59089,-47.5 -0.5909,-47.5 -1.15275,-5.353 -1.15276,-5.35301 -2.66763,-4.90132 -2.66764,-4.90133 -3.15226,-2.40434 c -1.73374,-1.32239 -4.92366,-3.18858 -7.08871,-4.14709 l -3.93646,-1.74274 -11,0.004 -11,0.004 -5.5,1.73247 c -6.24526,1.96722 -14.56849,5.80554 -17.42521,8.03577 l -1.92521,1.503 1.14366,2.26164 c 0.62901,1.24381 2.06622,4.73655 3.19379,7.76155 l 2.05013,5.5 1.4774,9 1.4774,9 -0.0134,6.5 -0.0134,6.5 -1.46039,8.91082 -1.46039,8.91081 -1.95308,5.58919 c -3.75163,10.73612 -8.24529,18.08536 -15.48483,25.3249 l -4.43385,4.43384 -6.83627,4.05104 -6.83627,4.05104 -7.95521,2.22401 -7.955203,2.22402 L 80.544794,986.63899 67.5,986.12473 62,984.12387 c -8.848682,-3.21908 -13.379647,-5.28248 -15.25,-6.94485 l -1.75,-1.55541 0,29.15499 0,29.155 -9,0 -9,0 0,-92.36312 z m 70.734363,25.44354 6.039117,-1.8285 4.36326,-3.01973 c 5.99796,-4.15108 8.15143,-6.67808 12.17446,-14.28624 l 3.46564,-6.55404 1.0673,-5.44596 c 0.58702,-2.99528 1.56598,-8.91998 2.17548,-13.16601 l 1.10817,-7.72004 -1.6291,-11.27996 -1.62911,-11.27995 -3.39255,-7 -3.39255,-7 -3.02602,-3.64199 -3.02601,-3.642 -5.32019,-3.53134 -5.32019,-3.53134 -6.446035,-2.28231 -6.446035,-2.28232 -14.577672,0.0274 -14.577672,0.0274 -4.422328,1.12178 c -2.43228,0.61699 -5.659828,1.38075 -7.172328,1.69727 l -2.75,0.57547 0.0269,47.23095 0.0269,47.23095 3.751726,2.31114 c 2.063449,1.27113 5.763845,3.21872 8.223102,4.32797 l 4.471377,2.01684 8.5,1.9003 8.5,1.90031 6.597623,-0.52382 6.597623,-0.52381 6.039117,-1.8285 z"
         id="path3191"
         inkscape:connector-curvature="0" />
      <path
         style="fill:#5c5c5c"
         d="m 27,941.57048 0,-92.36311 5.25,-1.54418 c 2.8875,-0.8493 8.625,-2.36759 12.75,-3.37399 l 7.5,-1.8298 20.5,-0.0129 20.5,-0.0129 6,1.88044 c 3.3,1.03425 8.46899,2.98936 11.48664,4.34469 l 5.48663,2.46424 6.2419,4.90531 c 3.43304,2.69793 6.454,4.90532 6.71323,4.90532 0.25924,0 2.4064,-1.30524 4.77147,-2.90053 5.24566,-3.53831 13.28814,-7.208 21.30013,-9.71903 l 6,-1.88044 15.5,0 15.5,0 5.85834,2.2765 c 3.22209,1.25208 7.7569,3.58274 10.07735,5.17926 l 4.21901,2.90275 2.92265,3.81287 c 3.61848,4.72065 6.08649,9.90725 8.72154,18.32862 l 2.03386,6.5 0.39165,51.28829 0.39165,51.2883 -9.30803,-0.2883 -9.30802,-0.28829 -0.59089,-47.5 -0.5909,-47.5 -1.1331,-5.24938 c -1.25771,-5.82664 -3.23077,-10.15959 -6.79612,-14.92467 l -2.37491,-3.17405 -5.75704,-2.77154 -5.75704,-2.77155 -11,0.0483 -11,0.0483 -5.5,1.73247 c -6.24526,1.96723 -14.56849,5.80555 -17.42521,8.03577 l -1.92521,1.503 1.14366,2.26164 c 0.62901,1.24391 2.06622,4.73665 3.19379,7.76165 l 2.05013,5.5 1.4774,9 1.4774,9 0.004,5.75658 0.004,5.75658 -1.47506,9.74342 -1.47505,9.74342 -2.05594,5.81319 c -1.13076,3.19726 -2.59802,6.79726 -3.26056,8 -3.66119,6.6463 -8.24817,13.04369 -12.15025,16.94577 l -4.4106,4.4106 -6.9324,4.11847 -6.93241,4.11847 -8.33092,2.15947 -8.330928,2.15948 L 80.072941,986.63786 67.5,986.11668 62,984.11985 c -8.82298,-3.20328 -13.376693,-5.27584 -15.25,-6.94083 l -1.75,-1.55541 0,29.15499 0,29.155 -9,0 -9,0 0,-92.36312 z m 70,25.68776 c 6.82176,-1.95578 12.55263,-5.22809 16.68741,-9.52849 l 3.16921,-3.29616 3.46011,-6.55404 3.46011,-6.55404 1.0673,-5.44596 c 0.58702,-2.99528 1.56598,-8.91998 2.17548,-13.16601 l 1.10817,-7.72004 -1.6291,-11.27996 -1.62911,-11.27995 -3.39255,-7 -3.39255,-7 -3.02602,-3.64199 -3.02601,-3.642 -5.32019,-3.53134 -5.32019,-3.53134 -6.446035,-2.28231 -6.446035,-2.28232 -14.577672,0.0274 -14.577672,0.0274 -4.422328,1.12178 c -2.43228,0.61699 -5.659828,1.38075 -7.172328,1.69727 l -2.75,0.57547 0.0269,47.23095 0.0269,47.23095 3.751726,2.31114 c 5.751903,3.54329 11.601232,5.95294 18.455738,7.60288 9.692601,2.33311 10.807925,2.4561 17.738741,1.95625 l 6.5,-0.46878 5.5,-1.57684 z"
         id="path3189"
         inkscape:connector-curvature="0" />
      <path
         style="fill:#212121"
         d="m 27,941.57048 0,-92.36311 5.25,-1.54418 c 2.8875,-0.8493 8.625,-2.36759 12.75,-3.37399 l 7.5,-1.8298 20.5,-0.0129 20.5,-0.0129 6,1.88044 c 3.3,1.03425 8.27606,2.90111 11.0579,4.14858 l 5.0579,2.26813 6.65584,5.10143 c 3.66072,2.80578 6.8746,5.10142 7.14197,5.10142 0.26737,0 2.42119,-1.30524 4.78626,-2.90053 5.24566,-3.53831 13.28814,-7.208 21.30013,-9.71903 l 6,-1.88044 15.5,0 15.5,0 5.94764,2.30991 5.94763,2.30991 4.55237,3.34687 c 7.40288,5.44256 11.35305,11.75546 15.35125,24.53331 l 2.03386,6.5 0.39165,51.28829 0.39165,51.2883 -9.30803,-0.2883 -9.30802,-0.28829 -0.59089,-47.5 -0.5909,-47.5 -1.1331,-5.24938 c -1.25771,-5.82664 -3.23077,-10.15959 -6.79612,-14.92467 l -2.37491,-3.17405 -5.75704,-2.77154 -5.75704,-2.77155 -11,0.0483 -11,0.0483 -5.5,1.73247 c -6.21596,1.958 -14.56826,5.80435 -17.38383,8.00551 l -1.88382,1.47274 1.51373,3.2919 c 0.83254,1.81055 2.44064,6.0278 3.57353,9.37167 l 2.05981,6.07977 1.2444,10.70531 1.2444,10.70531 -1.2934,10.71492 -1.2934,10.71492 -2.31269,7.13864 c -1.27198,3.92625 -2.90383,8.20125 -3.62633,9.5 -3.91707,7.04124 -8.15357,12.90937 -12.34821,17.10402 l -4.70736,4.70736 -6.64341,3.80864 -6.64342,3.80864 -6.5,1.96635 -6.5,1.96635 -14,-0.0115 -14,-0.0115 -6,-2.14243 c -9.106914,-3.25178 -13.818735,-5.37259 -15.75,-7.0891 l -1.75,-1.55539 0,29.15499 0,29.155 -9,0 -9,0 0,-92.36312 z m 71.112459,25.39018 c 10.800501,-3.5184 16.624331,-8.52362 22.201871,-19.08111 l 3.46251,-6.55404 1.0673,-5.44596 c 0.58702,-2.99528 1.56598,-8.91998 2.17548,-13.16601 l 1.10817,-7.72004 -1.6291,-11.27996 -1.62911,-11.27995 -3.39255,-7 -3.39255,-7 -3.02602,-3.64199 -3.02601,-3.642 -5.32019,-3.53134 -5.32019,-3.53134 -6.446035,-2.28231 -6.446035,-2.28232 -14.577672,0.0274 -14.577672,0.0274 -4.422328,1.12178 c -2.43228,0.61699 -5.659828,1.38075 -7.172328,1.69727 l -2.75,0.57547 0.0269,47.23095 0.0269,47.23095 3.751726,2.31114 c 5.751903,3.54329 11.601232,5.95294 18.455738,7.60288 9.700335,2.33497 10.780291,2.44921 18.238741,1.92932 l 7,-0.48793 5.612459,-1.82834 z"
         id="path3187"
         inkscape:connector-curvature="0" />
      <path
         style="fill:#000000"
         d="m 27,941.57048 0,-92.36311 5.25,-1.54418 c 2.8875,-0.8493 8.625,-2.36759 12.75,-3.37399 l 7.5,-1.8298 20.5,-0.0129 20.5,-0.0129 6,1.88044 c 3.3,1.03425 8.27606,2.90111 11.0579,4.14858 l 5.0579,2.26813 6.65584,5.10143 c 3.66072,2.80578 6.8746,5.10142 7.14197,5.10142 0.26737,0 2.42119,-1.30524 4.78626,-2.90053 5.24566,-3.53831 13.28814,-7.208 21.30013,-9.71903 l 6,-1.88044 15.5,0 15.5,0 5.94764,2.30991 5.94763,2.30991 4.55237,3.34687 c 7.40827,5.44653 11.3688,11.7795 15.3427,24.53331 l 2.02531,6.5 0.4075,51.28839 0.4075,51.28839 -9.31532,-0.28839 -9.31533,-0.28839 -0.58237,-47.5 -0.58237,-47.5 -1.14163,-5.24938 c -1.26835,-5.83207 -3.24471,-10.16683 -6.80464,-14.92467 l -2.37491,-3.17405 -5.75704,-2.77154 -5.75704,-2.77155 -11,0.0483 -11,0.0483 -5.5,1.73247 c -6.21596,1.958 -14.56826,5.80435 -17.38383,8.00551 l -1.88382,1.47274 1.51373,3.2919 c 0.83254,1.81055 2.42846,5.99261 3.54647,9.29348 l 2.03275,6.00157 1.25126,10.32416 1.25127,10.32415 -1.26981,11.12102 -1.26981,11.12103 -2.3229,7.05324 c -3.896,11.82977 -7.4717,17.84485 -15.61905,26.2745 l -5.04639,5.22124 -6.64993,3.81241 -6.64994,3.8124 -6.5,1.96635 -6.5,1.96635 -14,-0.0115 -14,-0.0115 -6,-2.14243 c -9.106914,-3.25178 -13.818735,-5.37259 -15.75,-7.0891 l -1.75,-1.55539 0,29.15499 0,29.155 -9,0 -9,0 0,-92.36312 z m 71.112459,25.39018 c 7.070751,-2.30339 12.556851,-5.74746 16.734661,-10.50573 l 3.26251,-3.71579 2.99474,-6.15277 2.99474,-6.15278 2.065,-12.3575 2.065,-12.35749 -1.65993,-11.64251 -1.65994,-11.6425 -3.41238,-7 -3.41238,-7 -3.02602,-3.64199 -3.02601,-3.642 -5.5185,-3.66297 -5.5185,-3.66297 -6.247726,-2.1557 -6.247724,-2.1557 -14.577672,0.0325 -14.577672,0.0325 -4.422328,1.12178 c -2.43228,0.61699 -5.659828,1.38075 -7.172328,1.69727 l -2.75,0.57547 0.0269,47.23095 0.0269,47.23095 3.751726,2.31114 c 5.751903,3.54329 11.601232,5.95294 18.455738,7.60288 9.700335,2.33497 10.780291,2.44921 18.238741,1.92932 l 7,-0.48793 5.612459,-1.82834 z"
         id="path3185"
         inkscape:connector-curvature="0" />
    </g>
  </g>
</svg>
