<?xml version="1.0" encoding="UTF-8" ?>
<!DOCTYPE svg PUBLIC "-//W3C//DTD SVG 1.1//EN" "http://www.w3.org/Graphics/SVG/1.1/DTD/svg11.dtd">
<svg width="256pt" height="256pt" viewBox="0 0 256 256" version="1.1" xmlns="http://www.w3.org/2000/svg">
<g id="#000000ff">
<path fill="#000000" opacity="1.00" d=" M 61.90 49.76 C 73.92 49.21 86.12 48.80 97.89 51.74 C 108.89 54.45 119.18 60.02 127.27 67.99 C 128.77 69.52 130.88 68.25 132.27 67.26 C 149.33 55.01 171.64 50.75 192.13 54.91 C 201.36 56.55 209.99 61.61 215.74 69.04 C 219.07 73.51 221.42 78.66 222.86 84.03 C 225.26 91.51 225.27 99.48 226.38 107.21 C 226.60 136.41 226.43 165.61 226.48 194.80 C 220.62 194.73 214.76 194.83 208.90 194.73 C 208.83 167.81 209.05 140.89 208.78 113.97 C 208.92 107.59 207.78 101.32 207.26 94.99 C 205.37 86.58 201.63 77.81 193.65 73.53 C 184.10 68.67 172.74 68.85 162.44 70.77 C 153.77 72.14 145.60 75.82 138.44 80.83 C 138.35 81.25 138.17 82.10 138.08 82.52 C 143.34 92.87 146.43 104.32 146.80 115.94 C 147.75 133.56 144.77 152.04 135.06 167.08 C 127.72 178.61 115.97 187.09 102.87 190.87 C 83.45 196.16 61.62 193.54 44.77 182.21 C 44.63 201.67 44.72 221.13 44.72 240.58 C 38.89 240.57 33.06 240.58 27.22 240.58 C 27.38 179.28 27.05 117.98 27.39 56.68 C 36.48 54.37 45.54 51.68 54.90 50.66 C 57.24 50.44 59.67 50.64 61.90 49.76 M 46.93 68.54 C 45.17 68.56 44.41 70.41 44.68 71.91 C 44.69 102.87 44.76 133.82 44.65 164.77 C 58.73 175.51 77.71 179.79 95.01 175.92 C 108.10 173.16 118.96 163.05 123.44 150.56 C 128.68 136.07 129.38 120.14 126.71 105.03 C 124.71 95.32 120.47 85.75 113.09 78.92 C 103.58 69.10 89.43 65.12 76.06 65.56 C 66.27 65.29 56.51 66.62 46.93 68.54 Z" />
</g>
</svg>
